<?xml version="1.0" encoding="utf-8"?>
<!-- Generator: Adobe Illustrator 16.0.3, SVG Export Plug-In . SVG Version: 6.00 Build 0)  -->
<!DOCTYPE svg PUBLIC "-//W3C//DTD SVG 1.1//EN" "http://www.w3.org/Graphics/SVG/1.1/DTD/svg11.dtd">
<svg version="1.1" id="Layer_1" xmlns="http://www.w3.org/2000/svg" xmlns:xlink="http://www.w3.org/1999/xlink" x="0px" y="0px"
	 width="500px" height="140px" viewBox="48.617 234.023 500 140" enable-background="new 48.617 234.023 500 140"
	 xml:space="preserve">
<g id="_x30_50ff6e9-f3f4-f61b-4542-f3ee313770f3" transform="matrix(3.3999999999999995,0,0,3.3999999999999995,105.95762805938722,120.14800128936768)">
	<path d="M45.085,62.07h-9.393V47.505h8.933v2.021h-6.778v4.013h4.504v2.021h-4.504v4.474h7.239V62.07z M54.092,62.07h-1.888
		l-4.102-10.642h2.185l2.556,6.941l0,0c0.149,0.426,0.258,0.797,0.327,1.114l0,0l0,0c0.07-0.317,0.183-0.688,0.342-1.114l0,0
		l2.512-6.941h2.17L54.092,62.07z M70.694,56.259L70.694,56.259L70.694,56.259c0,0.525-0.02,0.961-0.059,1.308l0,0h-7.327l0,0
		c0.159,0.892,0.481,1.595,0.966,2.111l0,0l0,0c0.495,0.515,1.14,0.773,1.932,0.773l0,0l0,0c0.931,0,1.734-0.322,2.408-0.967l0,0
		l1.233,1.338l0,0c-1.001,1.001-2.225,1.501-3.671,1.501l0,0l0,0c-1.536,0-2.75-0.52-3.641-1.561l0,0l0,0
		c-0.882-1.03-1.323-2.373-1.323-4.028l0,0l0,0c0-1.734,0.446-3.092,1.338-4.073l0,0l0,0c0.891-0.981,2.1-1.471,3.626-1.471l0,0l0,0
		c1.317,0,2.403,0.426,3.255,1.278l0,0l0,0C70.273,53.331,70.694,54.594,70.694,56.259z M63.262,55.768L63.262,55.768h5.381l0,0
		c-0.05-0.951-0.307-1.645-0.773-2.081l0,0l0,0c-0.475-0.446-1.04-0.669-1.694-0.669l0,0l0,0c-0.852,0-1.521,0.238-2.007,0.713l0,0
		l0,0C63.684,54.208,63.381,54.887,63.262,55.768z M79.329,51.191L79.329,51.191L79.329,51.191c2.626,0,3.939,1.526,3.939,4.578l0,0
		v6.302h-2.081v-6.168l0,0c0-1.843-0.778-2.764-2.333-2.764l0,0l0,0c-1.655,0-2.482,0.911-2.482,2.735l0,0v6.197h-2.081V51.428
		h1.947v1.293l0,0c0.258-0.456,0.664-0.827,1.219-1.115l0,0l0,0C78.012,51.329,78.636,51.191,79.329,51.191z M92.573,62.323
		L92.573,62.323L92.573,62.323c-1.943,0-2.913-0.931-2.913-2.794l0,0v-6.257h-2.333v-1.843h2.333V48.04l2.081-0.996v4.384h3.567
		v1.843H91.74v5.752l0,0c0,0.476,0.109,0.832,0.327,1.07l0,0l0,0c0.218,0.238,0.614,0.357,1.189,0.357l0,0l0,0
		c0.624,0,1.248-0.183,1.873-0.55l0,0l-0.238,1.932l0,0C94.286,62.159,93.514,62.323,92.573,62.323z M104.403,62.323L104.403,62.323
		L104.403,62.323c-0.842,0-1.63-0.173-2.363-0.52l0,0l0,0c-0.723-0.337-1.313-0.798-1.769-1.382l0,0l1.382-1.219l0,0
		c0.832,0.882,1.799,1.323,2.898,1.323l0,0l0,0c0.555,0,1.011-0.104,1.368-0.312l0,0l0,0c0.346-0.218,0.52-0.53,0.52-0.936l0,0l0,0
		c0-0.565-0.783-1.169-2.348-1.813l0,0l0,0c-0.03-0.01-0.05-0.02-0.059-0.03l0,0l0,0c-0.01,0-0.03-0.01-0.06-0.03l0,0l0,0
		c-0.03-0.01-0.054-0.02-0.074-0.03l0,0l0,0c-0.02-0.01-0.045-0.02-0.075-0.03l0,0l0,0c-0.594-0.248-1.05-0.451-1.367-0.609l0,0l0,0
		c-0.327-0.158-0.669-0.371-1.025-0.639l0,0l0,0c-0.356-0.267-0.614-0.565-0.773-0.892l0,0l0,0
		c-0.168-0.337-0.252-0.728-0.252-1.174l0,0l0,0c0-0.872,0.371-1.566,1.114-2.081l0,0l0,0c0.743-0.506,1.685-0.758,2.824-0.758l0,0
		l0,0c1.585,0,2.864,0.555,3.834,1.664l0,0L106.796,54l0,0c-0.763-0.684-1.61-1.026-2.542-1.026l0,0l0,0
		c-0.565,0-1.02,0.099-1.367,0.297l0,0l0,0c-0.347,0.188-0.52,0.451-0.52,0.788l0,0l0,0c0,0.486,0.763,1.026,2.289,1.62l0,0l0,0
		c0.059,0.03,0.099,0.049,0.119,0.059l0,0l0,0c0.506,0.198,0.867,0.347,1.085,0.446l0,0l0,0c0.228,0.089,0.54,0.248,0.936,0.476l0,0
		l0,0c0.386,0.218,0.674,0.431,0.862,0.639l0,0l0,0c0.188,0.208,0.362,0.485,0.52,0.832l0,0l0,0c0.149,0.337,0.223,0.703,0.223,1.1
		l0,0l0,0c0,0.961-0.362,1.714-1.085,2.259l0,0l0,0C106.593,62.046,105.622,62.323,104.403,62.323z"/>
</g>
<g id="a733c327-cf25-6a1f-e846-d6ff4a0970cc" transform="matrix(0.23350211782639882,0,0,0.23350211782639882,35.17630757877599,114.95471728213698)">
	
		<linearGradient id="SVGID_1_" gradientUnits="userSpaceOnUse" x1="-1004.8044" y1="1458.0659" x2="-1004.076" y2="1458.0659" gradientTransform="matrix(85.4756 45.1122 39.8579 -96.7433 28105.9336 187134.0938)">
		<stop  offset="0" style="stop-color:#A21F38"/>
		<stop  offset="1" style="stop-color:#D8806B"/>
	</linearGradient>
	<path fill="url(#SVGID_1_)" d="M539.052,741.321l74.624,130.181h54.549L538.001,651.951l-164.044,283.41l26.478,49.656
		L539.052,741.321z"/>
	
		<linearGradient id="SVGID_2_" gradientUnits="userSpaceOnUse" x1="-1004.8588" y1="1455.3391" x2="-1004.1302" y2="1455.3391" gradientTransform="matrix(103.2812 32.1251 48.1608 -68.8926 34039.5586 133371.1719)">
		<stop  offset="0" style="stop-color:#A21F38"/>
		<stop  offset="1" style="stop-color:#D8806B"/>
	</linearGradient>
	<path fill="url(#SVGID_2_)" d="M563.372,789.639l-24.328-41.806L402.862,985.016h329.661l25.913-52.73l-275.926,0.28
		L563.372,789.639z"/>
	
		<linearGradient id="SVGID_3_" gradientUnits="userSpaceOnUse" x1="-1004.2209" y1="1456.7109" x2="-1003.4921" y2="1456.7109" gradientTransform="matrix(78.6165 37.7973 36.6595 -81.0566 25991.7461 156777.4688)">
		<stop  offset="0" style="stop-color:#A21F38"/>
		<stop  offset="1" style="stop-color:#D8806B"/>
	</linearGradient>
	<path fill="url(#SVGID_3_)" d="M519.143,874.718l-31.365,55.641h270.658L594.321,651.303h-51.883l132.355,223.416H519.143z"/>
</g>
</svg>
